<mxfile host="app.diagrams.net" modified="2022-03-17T23:17:26.968Z" agent="5.0 (Windows NT 10.0; Win64; x64) AppleWebKit/537.36 (KHTML, like Gecko) Chrome/99.0.4844.74 Safari/537.36" etag="qqCjcWTU0FWbTO3N83jy" version="17.1.3" type="github">
  <diagram id="_wc4sK7ETuSvs1Dsnz3L" name="Page-1">
    <mxGraphModel dx="868" dy="450" grid="1" gridSize="10" guides="1" tooltips="1" connect="1" arrows="1" fold="1" page="1" pageScale="1" pageWidth="827" pageHeight="1169" math="0" shadow="0">
      <root>
        <mxCell id="0" />
        <mxCell id="1" parent="0" />
        <mxCell id="LsevK2w9nOIdbDsLI1gQ-1" value="" style="rounded=0;whiteSpace=wrap;html=1;" vertex="1" parent="1">
          <mxGeometry x="40" y="40" width="760" height="440" as="geometry" />
        </mxCell>
        <mxCell id="LsevK2w9nOIdbDsLI1gQ-2" value="" style="rounded=0;whiteSpace=wrap;html=1;" vertex="1" parent="1">
          <mxGeometry x="50" y="50" width="170" height="50" as="geometry" />
        </mxCell>
        <mxCell id="LsevK2w9nOIdbDsLI1gQ-3" value="&lt;font style=&quot;font-size: 18px&quot;&gt;Usuario&lt;/font&gt;&amp;nbsp;" style="text;html=1;strokeColor=none;fillColor=none;align=center;verticalAlign=middle;whiteSpace=wrap;rounded=0;" vertex="1" parent="1">
          <mxGeometry x="100" y="60" width="60" height="30" as="geometry" />
        </mxCell>
        <mxCell id="LsevK2w9nOIdbDsLI1gQ-4" value="Itehl Digital&amp;nbsp;" style="rounded=0;whiteSpace=wrap;html=1;fontSize=18;" vertex="1" parent="1">
          <mxGeometry x="220" y="50" width="570" height="50" as="geometry" />
        </mxCell>
        <mxCell id="LsevK2w9nOIdbDsLI1gQ-5" value="Requerimientos&amp;nbsp;&lt;br&gt;funcionales&amp;nbsp;" style="rounded=0;whiteSpace=wrap;html=1;" vertex="1" parent="1">
          <mxGeometry x="50" y="100" width="170" height="100" as="geometry" />
        </mxCell>
        <mxCell id="LsevK2w9nOIdbDsLI1gQ-6" value="&lt;div&gt;&lt;span style=&quot;font-size: 14px&quot;&gt;&lt;br&gt;&lt;/span&gt;&lt;/div&gt;" style="rounded=0;whiteSpace=wrap;html=1;fontSize=18;" vertex="1" parent="1">
          <mxGeometry x="220" y="100" width="570" height="100" as="geometry" />
        </mxCell>
        <mxCell id="LsevK2w9nOIdbDsLI1gQ-7" value="&lt;ul&gt;&lt;li style=&quot;font-size: 18px&quot;&gt;&lt;font style=&quot;font-size: 14px&quot;&gt;R1.&amp;nbsp; crear y editar la informaciÃ³n de los cursos y sus temarios&lt;/font&gt;&lt;/li&gt;&lt;li style=&quot;text-align: left&quot;&gt;R2. consultar cusos por modalidad&amp;nbsp;&lt;/li&gt;&lt;li style=&quot;text-align: left&quot;&gt;R3. Crear descuentos para cursos de acuerdo a su modalidad&lt;/li&gt;&lt;/ul&gt;" style="text;html=1;strokeColor=none;fillColor=none;align=center;verticalAlign=middle;whiteSpace=wrap;rounded=0;fontSize=14;" vertex="1" parent="1">
          <mxGeometry x="240" y="100" width="520" height="90" as="geometry" />
        </mxCell>
      </root>
    </mxGraphModel>
  </diagram>
</mxfile>
